<mxfile host="app.diagrams.net" modified="2024-01-29T03:55:40.303Z" agent="Mozilla/5.0 (Windows NT 10.0; Win64; x64) AppleWebKit/537.36 (KHTML, like Gecko) Chrome/121.0.0.0 Safari/537.36" etag="JwUFh1mHaa8MFd7K9xVO" version="23.0.2" type="device">
  <diagram name="Page-1" id="hZoW7ntTXD6682y466hc">
    <mxGraphModel dx="1434" dy="746" grid="1" gridSize="10" guides="1" tooltips="1" connect="1" arrows="1" fold="1" page="1" pageScale="1" pageWidth="850" pageHeight="1100" math="0" shadow="0">
      <root>
        <mxCell id="0" />
        <mxCell id="1" parent="0" />
        <mxCell id="hJvilJmwzbaRS6xGY7rJ-1" value="Student" style="shape=umlActor;verticalLabelPosition=bottom;verticalAlign=top;html=1;outlineConnect=0;" parent="1" vertex="1">
          <mxGeometry x="10" y="250" width="110" height="190" as="geometry" />
        </mxCell>
        <mxCell id="hJvilJmwzbaRS6xGY7rJ-2" value="&lt;font style=&quot;font-size: 14px;&quot;&gt;Login &amp;amp; Logout&lt;br&gt;&amp;nbsp;For System&lt;/font&gt;" style="ellipse;whiteSpace=wrap;html=1;" parent="1" vertex="1">
          <mxGeometry x="360" y="20" width="185" height="80" as="geometry" />
        </mxCell>
        <mxCell id="hJvilJmwzbaRS6xGY7rJ-3" value="&lt;font style=&quot;font-size: 14px;&quot;&gt;View Attandance&lt;/font&gt;" style="ellipse;whiteSpace=wrap;html=1;" parent="1" vertex="1">
          <mxGeometry x="360" y="120" width="185" height="80" as="geometry" />
        </mxCell>
        <mxCell id="hJvilJmwzbaRS6xGY7rJ-4" value="&lt;div&gt;&lt;font style=&quot;font-size: 14px;&quot;&gt;View Account&lt;/font&gt;&lt;/div&gt;" style="ellipse;whiteSpace=wrap;html=1;" parent="1" vertex="1">
          <mxGeometry x="360" y="230" width="185" height="80" as="geometry" />
        </mxCell>
        <mxCell id="hJvilJmwzbaRS6xGY7rJ-5" value="&lt;div style=&quot;font-size: 14px;&quot;&gt;View Notes&lt;/div&gt;" style="ellipse;whiteSpace=wrap;html=1;" parent="1" vertex="1">
          <mxGeometry x="360" y="340" width="185" height="80" as="geometry" />
        </mxCell>
        <mxCell id="hJvilJmwzbaRS6xGY7rJ-6" value="&lt;font style=&quot;font-size: 14px;&quot;&gt;View Marks&lt;/font&gt;" style="ellipse;whiteSpace=wrap;html=1;" parent="1" vertex="1">
          <mxGeometry x="360" y="450" width="185" height="80" as="geometry" />
        </mxCell>
        <mxCell id="hJvilJmwzbaRS6xGY7rJ-7" value="&lt;div style=&quot;font-size: 14px;&quot;&gt;Submit assignment&lt;/div&gt;" style="ellipse;whiteSpace=wrap;html=1;" parent="1" vertex="1">
          <mxGeometry x="360" y="550" width="185" height="80" as="geometry" />
        </mxCell>
        <mxCell id="hJvilJmwzbaRS6xGY7rJ-8" value="&lt;div&gt;&lt;font style=&quot;font-size: 14px;&quot;&gt;View Timetable&lt;/font&gt;&lt;/div&gt;" style="ellipse;whiteSpace=wrap;html=1;" parent="1" vertex="1">
          <mxGeometry x="360" y="650" width="185" height="80" as="geometry" />
        </mxCell>
        <mxCell id="hJvilJmwzbaRS6xGY7rJ-13" value="" style="endArrow=classic;html=1;rounded=0;exitX=1;exitY=0.3333333333333333;exitDx=0;exitDy=0;exitPerimeter=0;" parent="1" source="hJvilJmwzbaRS6xGY7rJ-1" edge="1">
          <mxGeometry width="50" height="50" relative="1" as="geometry">
            <mxPoint x="320" y="130" as="sourcePoint" />
            <mxPoint x="370" y="80" as="targetPoint" />
          </mxGeometry>
        </mxCell>
        <mxCell id="hJvilJmwzbaRS6xGY7rJ-14" value="" style="endArrow=classic;html=1;rounded=0;" parent="1" edge="1">
          <mxGeometry width="50" height="50" relative="1" as="geometry">
            <mxPoint x="120" y="310" as="sourcePoint" />
            <mxPoint x="370" y="180" as="targetPoint" />
          </mxGeometry>
        </mxCell>
        <mxCell id="hJvilJmwzbaRS6xGY7rJ-15" value="" style="endArrow=classic;html=1;rounded=0;exitX=1;exitY=0.3333333333333333;exitDx=0;exitDy=0;exitPerimeter=0;" parent="1" source="hJvilJmwzbaRS6xGY7rJ-1" edge="1">
          <mxGeometry width="50" height="50" relative="1" as="geometry">
            <mxPoint x="340" y="350" as="sourcePoint" />
            <mxPoint x="390" y="300" as="targetPoint" />
          </mxGeometry>
        </mxCell>
        <mxCell id="hJvilJmwzbaRS6xGY7rJ-16" value="" style="endArrow=classic;html=1;rounded=0;exitX=1;exitY=0.3333333333333333;exitDx=0;exitDy=0;exitPerimeter=0;" parent="1" source="hJvilJmwzbaRS6xGY7rJ-1" edge="1">
          <mxGeometry width="50" height="50" relative="1" as="geometry">
            <mxPoint x="320" y="450" as="sourcePoint" />
            <mxPoint x="370" y="400" as="targetPoint" />
          </mxGeometry>
        </mxCell>
        <mxCell id="hJvilJmwzbaRS6xGY7rJ-17" value="" style="endArrow=classic;html=1;rounded=0;exitX=1;exitY=0.3333333333333333;exitDx=0;exitDy=0;exitPerimeter=0;" parent="1" source="hJvilJmwzbaRS6xGY7rJ-1" edge="1">
          <mxGeometry width="50" height="50" relative="1" as="geometry">
            <mxPoint x="310" y="550" as="sourcePoint" />
            <mxPoint x="360" y="500" as="targetPoint" />
          </mxGeometry>
        </mxCell>
        <mxCell id="hJvilJmwzbaRS6xGY7rJ-18" value="" style="endArrow=classic;html=1;rounded=0;" parent="1" edge="1">
          <mxGeometry width="50" height="50" relative="1" as="geometry">
            <mxPoint x="120" y="320" as="sourcePoint" />
            <mxPoint x="360" y="600" as="targetPoint" />
          </mxGeometry>
        </mxCell>
        <mxCell id="hJvilJmwzbaRS6xGY7rJ-19" value="" style="endArrow=classic;html=1;rounded=0;" parent="1" edge="1">
          <mxGeometry width="50" height="50" relative="1" as="geometry">
            <mxPoint x="120" y="320" as="sourcePoint" />
            <mxPoint x="360" y="700" as="targetPoint" />
          </mxGeometry>
        </mxCell>
      </root>
    </mxGraphModel>
  </diagram>
</mxfile>
